<?xml version="1.0" standalone="no"?>
<!DOCTYPE svg PUBLIC "-//W3C//DTD SVG 20010904//EN"
 "http://www.w3.org/TR/2001/REC-SVG-20010904/DTD/svg10.dtd">
<svg version="1.0" xmlns="http://www.w3.org/2000/svg"
 width="300.000000pt" height="74.000000pt" viewBox="0 0 300.000000 74.000000"
 preserveAspectRatio="xMidYMid meet">
<metadata>
Created by potrace 1.10, written by Peter Selinger 2001-2011
</metadata>
<g transform="translate(0.000000,74.000000) scale(0.100000,-0.100000)"
fill="#000000" stroke="none">
<path d="M783 520 c-81 -38 -82 -39 -97 -91 -40 -132 1 -240 106 -284 55 -22
84 -19 175 21 73 33 84 41 95 73 7 20 13 70 13 112 0 65 -4 81 -27 116 -28 43
-88 78 -148 87 -27 4 -54 -4 -117 -34z m163 -62 c48 -42 64 -83 64 -162 0 -97
1 -96 -95 -96 -74 0 -87 3 -113 25 -45 37 -62 83 -62 163 0 103 -1 102 91 102
74 0 80 -2 115 -32z"/>
<path d="M320 339 c0 -188 2 -210 16 -205 9 3 25 6 35 6 19 0 20 6 18 78 l-2
77 44 6 c62 7 145 53 164 89 8 16 15 43 15 60 0 76 -45 100 -190 100 l-100 0
0 -211z m199 147 c21 -26 30 -75 19 -106 -10 -30 -11 -30 -81 -30 l-72 0 2 72
c1 40 2 74 3 76 0 1 26 2 59 2 38 0 63 -5 70 -14z"/>
<path d="M1180 346 l0 -206 35 0 35 0 -6 79 c-4 50 -3 80 4 85 9 6 84 -66 146
-141 24 -28 31 -31 64 -26 20 3 38 7 40 8 1 1 -33 40 -77 86 -44 46 -81 86
-81 89 0 3 20 13 45 24 52 21 75 56 75 114 0 28 -7 45 -26 63 -23 22 -35 24
-140 28 l-114 3 0 -206z m206 117 c11 -26 13 -46 7 -67 -8 -29 -12 -31 -73
-38 -35 -4 -67 -5 -72 -2 -4 3 -8 36 -8 75 l0 69 66 0 65 0 15 -37z"/>
<path d="M1536 528 c-3 -13 -6 -26 -6 -29 0 -3 27 -3 60 -1 l60 4 0 -187 c0
-167 2 -186 16 -181 9 3 22 6 30 6 12 0 14 31 14 181 l0 180 52 -2 c50 -3 64
6 67 44 1 4 -64 7 -143 7 -141 0 -144 0 -150 -22z"/>
<path d="M1900 345 l0 -205 130 0 c72 0 130 4 130 9 0 5 3 16 6 25 5 14 -7 16
-95 16 l-101 0 0 65 0 65 74 0 c58 0 75 3 80 16 15 38 9 41 -74 36 l-80 -5 0
64 0 64 90 -3 c89 -4 90 -4 100 23 5 14 10 28 10 31 0 2 -61 4 -135 4 l-135 0
0 -205z"/>
<path d="M2250 345 l0 -205 35 0 35 0 0 86 c0 47 4 84 8 82 5 -1 44 -41 88
-88 74 -79 81 -85 114 -82 19 2 37 6 39 8 3 3 -32 42 -77 87 -45 45 -82 85
-82 88 0 3 18 12 41 19 47 16 79 56 81 102 3 87 -32 108 -182 108 l-100 0 0
-205z m206 121 c12 -23 14 -45 10 -70 -7 -34 -9 -36 -45 -36 -21 0 -53 -3 -70
-6 l-31 -6 0 76 0 76 60 0 c59 0 61 -1 76 -34z"/>
</g>
</svg>
