<?xml version="1.0" standalone="no"?>
<!DOCTYPE svg PUBLIC "-//W3C//DTD SVG 20010904//EN"
 "http://www.w3.org/TR/2001/REC-SVG-20010904/DTD/svg10.dtd">
<svg version="1.0" xmlns="http://www.w3.org/2000/svg"
 width="640.000000pt" height="1280.000000pt" viewBox="0 0 640.000000 1280.000000"
 preserveAspectRatio="xMidYMid meet">
<metadata>
Created by potrace 1.15, written by Peter Selinger 2001-2017
</metadata>
<g transform="translate(0.000000,1280.000000) scale(0.100000,-0.100000)"
fill="#000000" stroke="none">
<path d="M1370 12785 c-77 -22 -129 -55 -188 -120 -171 -187 -175 -456 -10
-672 51 -67 181 -178 260 -224 119 -67 269 -115 320 -102 15 4 18 13 16 37 -3
29 -8 33 -129 81 -149 60 -220 101 -298 172 -113 101 -167 212 -178 360 -11
157 53 285 173 344 58 29 76 33 148 33 61 0 92 -5 127 -20 59 -27 115 -78 139
-124 18 -35 38 -140 28 -140 -3 0 -25 7 -49 15 -24 9 -56 13 -71 10 -25 -6
-98 -75 -98 -93 0 -5 -14 -23 -31 -40 -42 -43 -75 -42 -119 3 -35 36 -43 83
-20 125 14 26 22 25 60 -6 25 -21 38 -25 66 -21 45 8 61 21 69 57 9 42 -19 95
-62 115 -57 27 -116 16 -165 -31 -77 -75 -100 -152 -73 -236 34 -101 97 -171
193 -216 97 -44 210 -15 305 80 106 106 130 265 60 402 -33 66 -125 157 -193
191 -69 35 -194 44 -280 20z"/>
<path d="M3835 12776 c-61 -19 -97 -41 -136 -83 -51 -53 -71 -97 -76 -168 -8
-90 10 -139 73 -205 118 -124 200 -140 382 -76 56 20 109 36 118 36 9 0 29
-13 45 -30 37 -36 36 -74 -2 -102 -23 -18 -30 -18 -69 -7 -39 12 -44 11 -56
-6 -22 -29 -17 -44 26 -87 35 -35 43 -39 72 -33 91 19 155 104 145 192 -7 62
-49 120 -104 145 -54 24 -95 20 -186 -18 -79 -33 -148 -35 -202 -7 -137 72
-156 237 -35 307 29 18 52 21 135 21 90 -1 106 -4 165 -31 62 -30 171 -114
233 -179 54 -58 169 -241 232 -370 118 -241 202 -532 275 -954 22 -128 46
-245 53 -260 15 -32 42 -38 69 -14 19 16 20 26 15 113 -6 103 -42 321 -83 501
-98 439 -247 783 -441 1018 -117 144 -277 247 -447 291 -90 23 -143 24 -201 6z"/>
<path d="M4055 12390 c-4 -7 -3 -16 3 -22 14 -14 45 -2 40 15 -6 16 -34 21
-43 7z"/>
<path d="M2445 12231 c-17 -10 -43 -33 -58 -50 -25 -30 -27 -40 -27 -115 0
-109 16 -139 186 -346 259 -315 360 -497 403 -723 4 -26 6 -47 2 -47 -3 0 -24
40 -45 88 -53 118 -95 180 -178 268 -115 121 -247 211 -508 345 -57 30 -121
70 -142 90 -33 31 -38 42 -38 79 0 39 5 47 56 95 38 35 55 58 53 71 -6 31 -66
54 -141 54 -60 0 -71 -3 -110 -33 -50 -37 -98 -123 -98 -175 0 -18 8 -62 17
-97 l17 -63 -44 -58 c-59 -78 -84 -146 -70 -188 11 -34 59 -85 97 -105 29 -15
86 -14 101 1 7 7 12 26 12 44 0 90 41 124 158 132 120 8 284 -44 409 -129 60
-41 173 -139 173 -150 0 -4 -37 9 -82 30 -128 58 -167 66 -318 66 -151 0 -234
-19 -339 -78 -118 -65 -224 -206 -266 -351 -22 -76 -16 -198 13 -280 64 -176
259 -312 442 -309 71 1 170 29 235 67 55 33 142 127 165 178 31 73 43 152 31
210 -35 161 -127 257 -286 298 -118 31 -210 9 -296 -68 -66 -59 -88 -108 -89
-190 0 -110 58 -181 151 -185 35 -1 46 4 70 31 34 37 37 70 10 103 -15 18 -32
25 -77 29 -56 5 -59 6 -62 34 -4 36 46 91 90 100 46 9 278 -76 278 -102 0 -4
-13 -15 -29 -25 -45 -26 -99 -92 -112 -136 -16 -54 -2 -103 46 -158 l36 -42
-33 -18 c-26 -14 -56 -18 -133 -18 -93 0 -105 2 -167 33 -79 39 -129 92 -172
181 -28 60 -31 75 -31 161 1 83 4 102 29 153 124 257 471 357 752 218 265
-132 391 -439 317 -773 l-15 -68 -38 49 c-46 58 -96 91 -150 98 -75 10 -187
-65 -204 -137 -8 -32 -2 -40 56 -73 125 -72 95 -207 -63 -287 -123 -63 -178
-74 -364 -74 -93 0 -187 4 -208 8 l-39 7 45 48 c60 65 87 119 87 178 0 79 -62
158 -132 170 -44 7 -64 -17 -71 -86 -11 -94 -81 -138 -203 -128 -88 7 -217 69
-269 130 -45 52 -110 184 -124 255 -12 55 -15 142 -6 142 3 0 25 -10 48 -21
23 -12 69 -24 102 -27 103 -8 179 47 207 151 11 44 11 49 -10 69 -22 22 -23
22 -71 5 -98 -35 -176 -12 -213 63 -30 59 -21 195 16 245 14 19 16 19 98 -8
139 -45 239 -34 312 33 40 38 41 40 41 105 0 65 -1 67 -41 105 -80 74 -173 74
-322 -1 -79 -40 -83 -41 -102 -24 -32 29 -69 170 -49 190 3 2 31 -1 61 -7 70
-15 98 -4 122 47 23 48 14 86 -30 125 -65 56 -160 35 -218 -48 -69 -100 -62
-221 20 -355 l36 -58 -26 -58 c-36 -80 -84 -233 -97 -311 -15 -84 -5 -261 20
-365 11 -44 43 -145 70 -225 39 -109 51 -159 51 -203 l0 -58 -55 -24 c-46 -21
-55 -29 -55 -50 0 -14 11 -37 25 -50 19 -20 34 -25 76 -25 44 0 55 4 84 33 37
37 57 95 48 138 -3 16 -2 29 2 29 5 0 50 -27 101 -60 256 -166 525 -228 809
-185 182 28 283 62 567 196 195 91 253 109 349 109 73 0 122 -23 147 -70 23
-45 -5 -130 -44 -130 -9 0 -10 8 -3 36 14 47 3 89 -28 114 -34 27 -69 25 -108
-4 -64 -49 -70 -127 -14 -191 66 -75 177 -84 249 -19 51 46 63 80 58 159 -5
81 -41 135 -118 179 -44 25 -67 30 -136 34 -79 4 -198 -15 -246 -40 -10 -5
-18 -7 -18 -5 0 3 20 47 45 99 54 114 109 263 132 361 25 101 25 430 0 532
-19 77 -153 533 -169 578 -14 36 -46 35 -83 -3 -16 -16 -36 -30 -44 -30 -27 0
-175 144 -226 219 -39 57 -49 81 -53 123 -3 43 0 58 17 80 27 34 45 28 65 -22
20 -50 62 -83 96 -75 43 10 70 50 70 104 0 40 -5 52 -32 78 -18 18 -46 37 -61
42 -46 18 -138 13 -172 -8z m-927 -970 c8 -5 12 -22 10 -42 l-3 -34 -62 -3
c-67 -3 -140 19 -127 39 21 34 148 62 182 40z"/>
<path d="M4812 10988 c2 -12 10 -23 18 -23 22 0 19 39 -3 43 -15 3 -18 -1 -15
-20z"/>
<path d="M5147 10922 c-29 -26 -95 -69 -147 -96 -52 -27 -116 -62 -142 -78
-57 -36 -159 -153 -189 -217 -28 -62 -44 -78 -83 -85 -52 -10 -108 -57 -196
-163 -69 -83 -80 -102 -80 -134 0 -52 39 -83 92 -75 56 9 84 -7 182 -108 108
-111 128 -119 240 -92 106 25 107 24 89 -26 -8 -24 -33 -128 -54 -231 -22
-104 -59 -276 -84 -383 -25 -107 -45 -206 -45 -220 0 -24 3 -26 30 -20 25 4
29 3 23 -8 -4 -8 -103 -115 -219 -238 -240 -253 -288 -308 -309 -348 -20 -39
-20 -80 1 -80 9 0 82 64 163 143 80 78 157 151 170 162 24 20 24 20 -2 -20
-15 -22 -47 -95 -72 -163 -44 -121 -68 -175 -88 -200 -7 -10 -12 -9 -22 5 -11
15 -15 15 -54 -5 -119 -63 -112 -61 -176 -51 -68 10 -157 4 -230 -17 -36 -10
-73 -13 -132 -8 -133 11 -167 -15 -143 -107 15 -53 36 -97 84 -168 32 -47 36
-60 36 -117 l0 -64 -30 0 c-38 0 -58 -40 -40 -79 6 -13 9 -25 8 -26 -2 -1 -64
-41 -138 -90 -213 -138 -323 -227 -506 -410 -455 -453 -737 -907 -940 -1512
-48 -143 -56 -177 -48 -200 7 -22 17 -29 41 -31 42 -4 47 5 123 213 110 301
279 639 444 890 128 194 381 501 508 615 117 106 178 154 178 141 0 -7 -17
-38 -38 -69 -258 -381 -496 -930 -598 -1380 -70 -306 -102 -688 -69 -802 l8
-25 -29 26 c-36 33 -112 81 -226 142 -47 26 -110 66 -138 90 -82 66 -140 106
-203 138 -117 60 -172 132 -222 289 -56 177 -78 220 -115 220 -50 0 -122 -143
-151 -298 -17 -90 -6 -288 20 -380 23 -79 73 -185 129 -272 44 -69 92 -169 92
-192 0 -10 13 -58 29 -108 l29 -90 -22 0 c-15 0 -27 -9 -34 -25 -17 -36 -15
-119 3 -161 12 -30 19 -35 42 -32 20 2 33 13 46 38 l19 35 -6 -35 c-8 -43 -21
-53 -105 -81 -93 -31 -190 -76 -229 -106 -42 -31 -40 -47 19 -170 33 -70 59
-105 140 -190 148 -155 142 -140 80 -229 -71 -101 -92 -154 -102 -252 -7 -61
-18 -103 -44 -159 -42 -90 -43 -102 -10 -137 32 -34 57 -33 141 8 l69 34 205
5 c113 3 234 10 270 16 74 13 186 64 250 115 25 19 45 34 46 33 1 -1 -4 -36
-11 -77 -21 -122 -35 -287 -36 -431 -1 -143 7 -179 45 -197 16 -8 6 -11 -49
-10 -38 0 -95 3 -125 6 -30 4 -77 5 -104 1 -69 -8 -79 -25 -73 -124 6 -99 24
-149 87 -245 78 -120 78 -126 -32 -295 -107 -164 -123 -202 -153 -370 -22
-116 -36 -148 -90 -206 -162 -173 -131 -271 58 -188 44 20 108 37 165 46 108
16 173 36 221 69 19 13 38 21 42 18 4 -2 33 -41 65 -87 101 -145 266 -345 443
-536 46 -50 80 -91 76 -91 -26 0 -142 37 -203 66 -103 47 -162 93 -225 177
-79 104 -116 175 -133 258 -17 80 -38 116 -60 98 -39 -32 -17 -206 41 -324 62
-125 187 -245 330 -318 73 -36 214 -77 268 -77 42 0 49 3 57 26 12 30 4 34
107 -53 34 -28 103 -79 152 -113 125 -86 124 -83 52 -120 -50 -25 -61 -35 -61
-55 0 -29 36 -48 76 -40 13 3 36 7 50 10 14 3 36 17 49 31 l24 26 58 -33 c49
-28 69 -33 139 -37 56 -3 84 -1 89 7 10 17 -44 64 -234 206 -88 66 -159 124
-157 129 3 11 35 21 108 35 l48 8 23 -51 c46 -99 227 -311 287 -336 35 -14
135 -9 152 8 8 8 6 18 -7 39 -23 35 -165 193 -262 290 -41 43 -67 76 -61 79 6
4 92 7 192 8 166 1 187 -1 251 -23 88 -29 209 -91 256 -131 49 -40 109 -131
134 -205 23 -67 54 -93 99 -81 45 11 52 45 27 123 -60 182 -219 335 -451 434
-131 55 -176 62 -375 56 -105 -3 -209 -12 -250 -21 -105 -23 -292 -86 -306
-102 -6 -8 -18 -14 -27 -14 -19 0 -211 188 -356 350 -113 126 -366 427 -366
435 0 3 21 16 48 29 26 13 76 47 112 76 71 57 110 80 136 80 9 0 45 -28 80
-62 35 -35 74 -66 86 -70 32 -9 211 -9 224 0 24 15 35 56 44 155 5 61 19 132
35 176 30 90 31 134 5 201 -11 28 -20 53 -20 56 0 3 41 -31 91 -75 149 -132
276 -207 451 -265 125 -42 216 -58 333 -58 91 0 126 4 200 26 317 95 538 340
573 637 5 41 6 86 2 100 -11 36 8 64 108 171 45 47 82 93 82 101 0 39 -142
107 -221 107 -51 0 -69 8 -69 32 0 23 -23 69 -62 124 l-29 41 20 34 c25 41 26
98 5 189 -10 42 -17 139 -21 277 l-5 212 41 85 c57 117 71 160 71 220 0 52
-28 116 -51 116 -18 0 -51 -21 -134 -85 -44 -33 -120 -86 -169 -116 -111 -68
-204 -154 -264 -244 -47 -69 -49 -71 -177 -135 -137 -69 -142 -73 -285 -248
l-35 -43 -105 -6 c-87 -5 -121 -2 -196 16 -115 27 -119 26 -151 -5 -25 -25
-26 -28 -19 -118 8 -113 26 -178 77 -275 26 -50 37 -81 33 -95 -4 -12 -37 -53
-73 -91 -148 -156 -140 -233 28 -271 104 -23 140 -43 206 -118 63 -71 109 -96
178 -96 55 0 136 22 188 51 43 24 130 128 166 198 10 20 19 38 21 41 2 3 8 -3
13 -13 12 -20 54 -23 66 -4 4 6 10 31 13 55 5 40 6 42 24 29 18 -13 18 -15 -4
-56 -12 -24 -20 -51 -17 -61 10 -38 134 -228 178 -272 58 -58 93 -66 190 -44
39 9 102 16 139 16 l67 0 7 53 c3 28 6 81 6 117 0 36 4 70 8 77 8 13 62 36 69
29 6 -6 -35 -160 -63 -234 -44 -117 -111 -202 -217 -274 -147 -100 -276 -134
-477 -125 -141 6 -194 20 -355 96 -224 106 -377 241 -529 468 -48 72 -95 134
-104 138 -23 9 -46 -20 -46 -58 0 -18 12 -57 27 -85 15 -28 27 -54 27 -57 0
-2 -12 0 -27 6 -55 21 -147 -14 -201 -76 -33 -37 -40 -63 -21 -82 14 -14 -26
-43 -57 -43 -27 0 -80 -43 -89 -70 -4 -13 -15 -20 -30 -20 -34 0 -117 -70
-154 -129 -31 -51 -44 -60 -57 -40 -3 6 8 24 25 39 18 17 31 39 31 53 0 17 17
35 65 71 88 64 155 131 155 154 0 11 -9 31 -21 46 l-20 26 35 0 c19 0 38 -4
41 -10 13 -22 45 -8 80 34 22 27 47 46 64 49 79 16 151 225 151 434 0 146 -25
272 -102 518 -49 158 -71 205 -98 205 -25 0 -28 17 -32 157 -4 121 -17 153
-64 153 -71 0 -82 -30 -90 -242 -11 -283 25 -656 76 -789 11 -30 20 -55 20
-56 0 -1 -25 9 -55 23 -84 39 -116 41 -171 10 -26 -14 -48 -25 -49 -24 -2 2 1
41 5 88 5 47 9 128 9 180 1 52 8 180 16 283 10 122 12 194 6 205 -7 14 -3 30
15 62 38 67 55 144 48 216 -6 56 -5 62 17 78 38 26 84 19 204 -34 125 -55 162
-60 260 -35 81 22 148 60 210 122 96 96 175 243 175 325 0 18 -7 61 -15 94
-28 120 -29 183 -5 275 12 46 28 151 36 234 19 202 18 204 -119 208 -37 1 -67
5 -67 8 0 3 10 14 22 25 47 42 255 553 244 599 -8 33 -41 65 -66 65 -25 0 -23
3 -174 -350 -121 -280 -138 -331 -116 -345 23 -14 4 -29 -102 -80 -144 -68
-218 -97 -218 -85 0 5 5 12 11 15 18 12 26 43 84 331 150 749 275 1098 689
1932 l86 174 -1 -189 c0 -103 -4 -196 -8 -206 -6 -17 -8 -17 -32 2 -44 34 -72
36 -107 6 -26 -22 -32 -34 -32 -67 0 -28 -17 -76 -56 -159 -31 -66 -58 -137
-61 -159 -8 -55 13 -120 59 -192 21 -33 38 -62 36 -63 -2 -2 -28 1 -58 7 -109
20 -200 -2 -213 -51 -4 -16 5 -19 74 -25 71 -7 190 -2 247 10 37 7 26 -16 -42
-86 -74 -77 -82 -100 -73 -226 4 -62 13 -96 33 -135 41 -83 284 -319 327 -319
4 0 36 26 70 58 35 33 90 76 123 97 78 49 111 81 136 130 43 84 65 96 222 115
175 21 235 57 367 215 87 103 77 96 261 177 26 12 50 28 53 36 15 39 -76 104
-206 148 -61 21 -90 24 -204 24 -148 0 -160 3 -250 66 -38 27 -88 50 -131 62
-105 29 -131 46 -215 134 l-77 80 -82 9 c-45 5 -92 15 -103 21 l-22 13 23 3
c33 5 52 41 67 129 18 100 18 260 0 443 -20 201 -20 203 6 190 16 -9 24 -8 38
4 9 9 66 108 126 220 60 113 111 204 112 202 2 -1 -9 -31 -23 -65 -33 -84 -30
-114 14 -121 l33 -5 2 -100 c2 -114 20 -161 88 -239 91 -103 186 -133 260 -83
19 13 51 35 72 50 56 38 179 83 291 105 171 34 175 65 30 212 -92 94 -94 97
-114 175 -11 43 -20 86 -20 96 0 9 32 59 70 111 83 111 106 174 115 325 3 56
12 132 20 170 8 42 15 150 16 282 3 200 2 214 -16 227 -51 38 -93 7 -204 -150
-86 -123 -153 -189 -260 -259 -38 -26 -78 -58 -88 -72 -51 -73 -54 -74 -33
-11 11 33 23 84 26 113 6 43 4 54 -10 59 -9 3 -16 10 -16 14 0 4 48 61 106
126 192 216 280 349 331 498 25 73 28 94 28 221 0 132 -1 143 -27 191 -32 61
-52 81 -65 62 -4 -7 -6 -88 -4 -180 3 -138 0 -175 -14 -220 -37 -110 -138
-308 -152 -295 -3 3 16 88 41 189 55 221 73 309 95 453 l17 110 46 -3 c59 -4
81 10 164 107 63 73 66 78 60 118 -9 69 -73 222 -126 304 -28 41 -50 85 -50
97 0 30 29 84 84 157 75 98 111 224 86 299 -11 34 -34 56 -59 56 -6 0 -35 -21
-64 -48z m-246 -409 c-8 -15 -10 -15 -11 -2 0 17 10 32 18 25 2 -3 -1 -13 -7
-23z m-55 -230 c-5 -38 -2 -54 12 -76 16 -23 19 -41 14 -92 -4 -55 -2 -65 17
-81 11 -10 21 -22 21 -26 0 -18 -30 -5 -71 30 l-43 39 18 37 c19 40 18 59 -5
138 -12 44 -12 49 6 63 32 23 37 18 31 -32z m-246 -98 c0 -8 -4 -15 -9 -15
-13 0 -22 16 -14 24 11 11 23 6 23 -9z m100 -67 c0 -13 -23 -5 -28 10 -2 7 2
10 12 6 9 -3 16 -11 16 -16z m410 3 c0 -5 -7 -11 -15 -15 -9 -3 -15 0 -15 9 0
8 7 15 15 15 8 0 15 -4 15 -9z m-69 -1689 c-12 -23 -51 -58 -51 -46 0 19 41
75 50 69 6 -4 7 -13 1 -23z m-194 3 c8 -22 -6 -33 -17 -15 -13 20 -12 30 0 30
6 0 13 -7 17 -15z m57 -153 c6 -10 -54 -102 -66 -102 -6 0 2 28 27 98 5 14 31
16 39 4z m-354 -92 c0 -5 -5 -10 -11 -10 -5 0 -7 5 -4 10 3 6 8 10 11 10 2 0
4 -4 4 -10z m460 -66 c0 -17 -1 -17 -37 -3 -26 10 -26 12 -8 19 25 9 45 2 45
-16z m-190 -38 c-1 -6 -18 -23 -39 -37 -53 -37 -123 -144 -119 -183 3 -27 -2
-33 -46 -57 -87 -45 -92 -77 -25 -134 32 -26 32 -26 12 -46 -20 -20 -20 -20
-81 43 -53 54 -60 64 -45 73 47 28 105 93 135 151 18 35 41 67 50 70 9 3 42
39 73 80 46 61 59 73 71 63 8 -6 14 -17 14 -23z m-349 -73 c-12 -20 -14 -14
-5 12 4 9 9 14 11 11 3 -2 0 -13 -6 -23z m-367 -129 c28 -11 17 -24 -19 -24
-33 0 -43 8 -28 23 8 9 27 9 47 1z m704 -20 c35 -10 26 -27 -10 -20 -39 8 -62
26 -32 26 10 0 29 -3 42 -6z m-988 -219 c11 -13 8 -15 -19 -15 -31 0 -42 14
-18 23 20 9 24 8 37 -8z m306 -67 c-13 -29 -27 -63 -32 -76 -9 -23 -9 -23 -27
7 l-18 31 46 45 c26 25 48 45 50 45 2 0 -6 -24 -19 -52z m-202 -9 c34 -12 67
-23 75 -25 11 -4 8 -10 -9 -29 -22 -24 -23 -29 -17 -144 l7 -120 -28 -3 c-22
-2 -37 -20 -91 -108 -143 -234 -363 -710 -532 -1149 -8 -18 -13 -21 -21 -13
-21 21 -53 13 -114 -26 -86 -56 -167 -135 -269 -262 -83 -103 -90 -110 -93
-84 -7 53 61 343 122 526 97 289 304 706 518 1043 42 66 80 134 84 150 10 43
35 67 162 152 63 43 119 85 126 95 13 22 7 22 80 -3z m903 -1 c-4 -14 -36 -12
-51 3 -6 5 3 9 23 9 22 0 31 -4 28 -12z m-187 -110 c0 -5 -7 -8 -15 -8 -8 0
-15 4 -15 9 0 5 -2 24 -6 42 l-5 34 20 -35 c11 -19 20 -38 21 -42z m-654
-1093 c14 -25 33 -49 42 -54 13 -8 14 -13 2 -42 -20 -52 -30 -57 -30 -16 0 44
-20 96 -43 116 -10 7 -17 20 -17 27 0 27 19 14 46 -31z m554 -140 c0 -6 -56
-35 -67 -35 -4 0 6 9 22 20 29 19 45 25 45 15z m-548 -77 c-8 -8 -9 -4 -5 13
4 13 8 18 11 10 2 -7 -1 -18 -6 -23z m348 -47 c0 -12 -20 -25 -27 -18 -7 7 6
27 18 27 5 0 9 -4 9 -9z m-349 -45 c17 -14 49 -28 75 -32 48 -7 156 0 187 11
11 5 17 2 17 -6 0 -7 7 -21 17 -31 15 -17 14 -18 -17 -18 -18 0 -42 -8 -52
-17 -17 -15 -23 -15 -91 15 -84 37 -115 40 -145 12 -12 -11 -23 -20 -26 -20
-9 0 -18 68 -11 89 8 26 11 26 46 -3z m739 -46 c-8 -5 -21 -10 -29 -10 -11 0
-10 5 4 20 13 15 22 17 29 10 8 -8 6 -14 -4 -20z m-172 -57 c2 -8 -5 -13 -17
-13 -21 0 -35 13 -24 24 10 10 36 3 41 -11z m-1305 -235 c-119 -400 -225 -858
-227 -985 l-1 -73 -47 0 c-64 0 -91 12 -142 63 -41 41 -116 161 -116 185 0 7
9 12 20 12 26 0 32 16 64 182 48 247 107 389 235 558 68 91 248 270 271 270 4
0 -22 -96 -57 -212z m780 162 c20 -33 16 -50 -14 -50 -16 0 -19 7 -19 40 0 48
9 51 33 10z m91 -201 c-10 -16 -24 -9 -24 12 0 18 2 19 15 9 8 -7 12 -16 9
-21z m-2234 -456 c7 -21 32 -71 56 -110 24 -40 40 -73 35 -73 -5 0 -27 20 -49
44 -29 31 -43 58 -51 95 -18 85 -12 112 9 44z m295 -123 c3 -5 -1 -10 -9 -10
-9 0 -16 5 -16 10 0 6 4 10 9 10 6 0 13 -4 16 -10z m105 -147 c0 -10 -5 -25
-10 -33 -7 -11 -10 -7 -10 18 0 17 5 32 10 32 6 0 10 -8 10 -17z m-70 -238
c22 -32 38 -45 55 -45 14 0 29 -8 35 -19 11 -22 14 -81 4 -81 -4 0 -30 21 -58
48 -45 42 -65 77 -76 140 -2 12 14 -6 40 -43z m140 -205 c0 -5 -2 -10 -4 -10
-3 0 -8 5 -11 10 -3 6 -1 10 4 10 6 0 11 -4 11 -10z m1040 -10 c0 -14 -15 -27
-51 -45 -27 -14 -90 -62 -139 -105 -49 -44 -92 -80 -96 -80 -4 0 30 38 75 85
44 46 81 91 81 100 0 9 9 15 24 15 14 0 38 11 53 25 34 30 53 32 53 5z m-924
-146 c85 -122 122 -164 144 -164 13 0 21 -10 25 -32 11 -48 109 -249 140 -286
33 -39 43 -40 72 -4 l22 27 1 -28 c0 -23 5 -29 30 -34 l31 -6 -33 -20 c-18
-10 -54 -39 -80 -63 -47 -44 -71 -53 -83 -34 -21 34 -161 -27 -365 -159 -93
-60 -126 -77 -128 -65 -6 27 7 44 33 44 30 0 92 30 155 75 25 17 72 47 105 65
73 40 115 78 115 102 0 14 8 18 39 18 26 0 41 5 45 16 12 31 -79 211 -146 288
-33 38 -35 39 -116 44 -96 5 -110 22 -19 22 104 0 105 16 4 172 -66 103 -83
133 -69 124 6 -4 41 -50 78 -102z m214 34 c0 -7 -5 -20 -10 -28 -8 -12 -10 -9
-10 13 0 15 5 27 10 27 6 0 10 -6 10 -12z m-444 -120 c9 -16 13 -32 11 -34 -6
-6 -57 54 -57 66 0 19 31 -3 46 -32z m809 -84 c-8 -16 -15 -39 -15 -51 0 -14
-23 -46 -61 -85 -53 -54 -59 -58 -44 -28 10 19 26 62 35 95 13 46 22 61 37 63
12 2 29 12 39 23 23 26 28 18 9 -17z m345 -54 c0 -5 -4 -10 -10 -10 -5 0 -10
5 -10 10 0 6 5 10 10 10 6 0 10 -4 10 -10z m-1107 -269 c8 -8 1 -11 -25 -11
-43 0 -68 8 -68 22 0 13 78 4 93 -11z m897 -6 c-7 -9 -15 -13 -17 -11 -7 7 7
26 19 26 6 0 6 -6 -2 -15z m-700 -15 l35 -19 -47 -1 c-48 0 -71 15 -47 31 18
11 18 11 59 -11z m2224 -339 c3 -5 -3 -20 -14 -32 l-19 -24 -1 33 c0 31 21 45
34 23z m-2124 -140 c0 -12 -40 -41 -57 -41 -21 0 -15 14 15 32 32 19 42 21 42
9z m-525 -37 c-10 -7 -22 -11 -28 -7 -5 3 1 14 14 24 16 12 25 14 28 7 2 -6
-4 -17 -14 -24z m2695 -178 c0 -15 -21 -26 -52 -26 -20 0 -21 1 -3 20 21 23
55 27 55 6z m-213 -42 c3 -9 0 -20 -8 -25 -21 -13 -29 -11 -29 9 0 33 26 44
37 16z m-1430 -90 c40 -114 91 -363 70 -344 -3 3 -23 78 -46 168 -22 90 -45
171 -51 182 -13 25 -13 43 2 38 6 -2 18 -22 25 -44z m1305 -49 c-30 -14 -70
-37 -90 -53 -58 -45 -60 -44 -34 8 25 51 22 50 112 63 59 9 62 4 12 -18z m-11
-124 c-12 -16 -21 -36 -21 -44 0 -20 -17 -30 -37 -23 -13 6 -13 9 3 33 19 30
54 62 67 63 5 0 -1 -13 -12 -29z m-170 -38 c-12 -20 -14 -14 -5 12 4 9 9 14
11 11 3 -2 0 -13 -6 -23z m-161 -39 c0 -8 -4 -14 -10 -14 -5 0 -10 9 -10 21 0
11 5 17 10 14 6 -3 10 -13 10 -21z m-266 -26 c9 -12 13 -24 11 -27 -6 -5 -45
29 -45 41 0 15 19 8 34 -14z m1128 -29 c15 -23 25 -46 22 -50 -8 -13 -30 -11
-41 4 -13 15 -24 87 -15 87 4 0 20 -19 34 -41z m-572 -31 c14 10 31 17 38 14
9 -3 -2 -21 -34 -53 l-48 -49 22 -46 c13 -26 21 -49 18 -52 -12 -11 -50 96
-54 153 l-5 60 19 -23 c19 -23 20 -23 44 -4z m-274 -123 c10 -26 0 -37 -20
-22 -11 8 -16 19 -12 25 10 16 26 15 32 -3z m141 -7 c-3 -8 -6 -5 -6 6 -1 11
2 17 5 13 3 -3 4 -12 1 -19z m374 -34 l-16 -46 30 -24 30 -24 -45 0 c-25 0
-63 -3 -85 -6 l-40 -7 35 24 c19 14 49 48 65 76 17 29 33 52 36 53 4 0 -1 -21
-10 -46z m-1454 -31 c9 -4 19 -1 21 5 2 7 8 12 14 12 20 0 -7 -181 -38 -255
l-16 -40 -19 70 c-10 39 -32 102 -48 140 l-30 70 25 3 c18 3 26 11 31 33 l6
30 18 -31 c11 -17 27 -34 36 -37z m1751 -45 c-3 -7 -13 -15 -24 -17 -16 -3
-17 -1 -5 13 16 19 34 21 29 4z m-688 -23 c15 -28 10 -38 -14 -29 -16 6 -23
54 -8 54 5 0 15 -11 22 -25z m90 -15 c0 -13 -1 -13 -10 0 -5 8 -10 22 -10 30
0 13 1 13 10 0 5 -8 10 -22 10 -30z m-365 -5 c-34 -16 -65 -19 -65 -7 0 17 14
22 54 21 l41 -1 -30 -13z m-1246 -159 c25 -7 52 -23 60 -36 9 -13 11 -21 6
-19 -6 2 -38 15 -72 28 -35 13 -63 28 -63 32 0 12 17 11 69 -5z m2078 -22 c-3
-3 -12 -4 -19 -1 -8 3 -5 6 6 6 11 1 17 -2 13 -5z m-1893 -119 l29 -23 -44 10
c-24 6 -50 12 -56 14 -7 2 -13 15 -13 29 0 26 0 26 28 10 15 -9 40 -27 56 -40z
m431 -195 c3 -5 -3 -10 -14 -10 -12 0 -21 5 -21 10 0 6 6 10 14 10 8 0 18 -4
21 -10z m-168 -162 c-3 -8 -6 -5 -6 6 -1 11 2 17 5 13 3 -3 4 -12 1 -19z
m-677 -253 c-7 -8 -20 -15 -29 -15 -12 0 -10 5 9 20 28 21 39 18 20 -5z"/>
<path d="M3351 9479 c-21 -22 -31 -62 -31 -119 0 -91 62 -188 177 -278 46 -36
85 -75 88 -86 2 -12 9 -64 15 -116 13 -108 32 -160 82 -213 41 -43 68 -47 112
-14 17 13 56 37 86 55 92 51 104 71 109 163 1 43 6 79 10 79 13 -1 95 -156
108 -204 21 -79 27 -238 14 -374 -14 -137 -9 -155 38 -150 35 4 49 38 63 145
23 192 -4 369 -82 523 l-30 60 22 0 c26 0 248 122 262 144 18 27 -9 64 -56 76
-52 15 -126 52 -237 119 -104 63 -120 67 -313 86 -165 16 -269 41 -331 81 -64
42 -84 46 -106 23z m380 -310 c11 -21 10 -22 -22 -15 -38 7 -43 11 -34 25 11
18 44 12 56 -10z m152 -85 c40 -16 51 -16 68 -6 24 15 32 12 24 -10 -5 -13
-19 -22 -67 -46 -5 -2 -8 3 -8 12 0 24 -41 46 -87 46 -41 0 -52 8 -36 24 10
10 47 3 106 -20z m-81 -206 c-7 -7 -12 -8 -12 -2 0 14 12 26 19 19 2 -3 -1
-11 -7 -17z"/>
<path d="M2270 9326 c-168 -38 -259 -83 -350 -176 -193 -195 -219 -428 -82
-715 153 -317 551 -550 822 -481 120 31 190 98 198 191 6 70 -12 119 -61 173
-53 56 -88 73 -217 106 -66 16 -120 36 -145 54 -36 25 -40 33 -43 75 -3 43 0
51 30 81 40 40 90 56 179 56 97 0 154 -23 219 -89 70 -71 100 -131 100 -202 0
-68 17 -104 50 -104 34 0 64 55 63 115 -1 72 -45 154 -127 236 -61 60 -82 74
-146 97 -151 55 -221 53 -333 -6 -96 -50 -134 -122 -115 -211 27 -126 153
-224 310 -241 61 -7 108 -32 140 -76 17 -22 18 -31 9 -67 -21 -77 -91 -107
-236 -100 -208 10 -425 149 -574 367 -77 112 -86 148 -86 331 0 143 2 158 24
200 76 147 198 237 376 276 121 27 349 12 482 -32 26 -8 111 -46 188 -84 157
-77 261 -155 426 -320 145 -145 252 -289 367 -494 43 -77 80 -113 107 -102 25
9 17 53 -24 142 -90 192 -289 444 -488 619 -107 94 -284 213 -387 260 -92 43
-264 101 -354 121 -80 17 -246 17 -322 0z"/>
<path d="M5203 7363 c-20 -7 -15 -50 13 -138 47 -142 31 -266 -41 -338 -38
-38 -123 -61 -192 -53 -73 9 -110 25 -199 90 -84 61 -168 105 -220 113 -49 8
-119 -22 -151 -63 -27 -37 -41 -110 -29 -158 17 -67 114 -135 192 -136 47 0
64 14 64 52 0 33 -17 43 -87 53 -90 12 -130 78 -83 138 46 58 99 42 261 -80
130 -98 169 -115 279 -120 116 -7 183 18 261 96 98 99 123 218 75 360 -33 99
-100 197 -128 190 -2 0 -9 -3 -15 -6z"/>
<path d="M3997 3944 c-8 -8 1 -24 14 -24 5 0 9 7 9 15 0 15 -12 20 -23 9z"/>
<path d="M1915 3020 c-15 -17 -16 -26 -6 -85 26 -146 132 -496 212 -698 45
-113 163 -354 186 -379 34 -38 83 -7 83 51 0 17 -38 123 -83 234 -79 189 -161
426 -256 733 -23 72 -49 138 -59 147 -25 23 -55 21 -77 -3z"/>
<path d="M2903 1323 c-9 -22 27 -122 92 -259 54 -114 83 -154 111 -154 14 0
15 7 10 39 -6 38 -123 330 -148 371 -16 24 -56 26 -65 3z"/>
<path d="M3326 1274 c-21 -21 -20 -32 8 -108 52 -137 239 -472 299 -536 37
-39 70 -47 102 -26 44 29 40 41 -137 366 -124 227 -163 285 -203 304 -41 20
-50 20 -69 0z"/>
</g>
</svg>
